<svg width="900" height="378" viewBox="0 0 900 378" fill="none" xmlns="http://www.w3.org/2000/svg">
<path d="M159.881 121.267C162.992 118.316 164.805 114.251 164.922 109.964C165.038 105.677 163.448 101.52 160.501 98.4046C153.364 90.8392 149.517 80.7538 149.802 70.3574C150.087 59.9611 154.481 50.1015 162.021 42.9384C169.585 35.7907 179.676 31.9363 190.078 32.2214C200.481 32.5064 210.346 36.9075 217.507 44.4586C221.034 48.1959 223.787 52.5944 225.606 57.4006C227.426 62.2067 228.276 67.3254 228.108 72.4617C228.017 77.6159 226.904 82.7009 224.834 87.4219C222.763 92.143 219.777 96.4062 216.047 99.9648C214.502 101.423 213.26 103.172 212.392 105.11C211.524 107.049 211.047 109.14 210.987 111.263C210.928 113.387 211.288 115.501 212.046 117.485C212.804 119.47 213.946 121.285 215.407 122.827C216.915 124.427 218.735 125.701 220.754 126.571C222.773 127.442 224.949 127.89 227.148 127.888C231.288 127.89 235.27 126.3 238.269 123.447C245.099 116.997 250.582 109.256 254.4 100.673C258.218 92.0893 260.295 82.8337 260.512 73.4418C260.811 64.0501 259.245 54.6923 255.905 45.9098C252.564 37.1273 247.515 29.0945 241.049 22.2761C234.597 15.4494 226.855 9.96894 218.272 6.15124C209.689 2.33354 200.435 0.254303 191.044 0.0336134C181.654 -0.254886 172.299 1.31607 163.518 4.65614C154.737 7.9962 146.703 13.0394 139.879 19.4957C126.106 32.5586 118.079 50.5516 117.557 69.5264C117.036 88.5012 124.064 106.908 137.098 120.707C140.054 123.786 144.107 125.573 148.374 125.678C152.641 125.783 156.777 124.197 159.881 121.267Z" fill="#0061BD"/>
<path d="M121.457 240.301L121.957 239.861L191.225 173.354C194.315 170.381 196.099 166.304 196.185 162.017C196.271 157.731 194.652 153.585 191.685 150.491C190.216 148.957 188.459 147.728 186.515 146.874C184.57 146.02 182.476 145.557 180.353 145.513C178.23 145.468 176.119 145.842 174.14 146.614C172.162 147.386 170.355 148.54 168.822 150.011L99.5549 216.518L98.9748 217.138L98.5548 217.499C90.991 224.646 80.9001 228.501 70.4973 228.216C60.0945 227.931 50.2299 223.529 43.0688 215.978C35.9299 208.413 32.0829 198.325 32.3716 187.927C32.6604 177.529 37.0613 167.67 44.609 160.512C52.1647 153.38 62.2369 149.53 72.6233 149.804C83.0097 150.077 92.8653 154.452 100.035 161.972C101.493 163.517 103.242 164.759 105.181 165.627C107.119 166.495 109.21 166.972 111.334 167.032C113.457 167.091 115.571 166.732 117.555 165.973C119.54 165.215 121.355 164.073 122.898 162.612C126.009 159.662 127.822 155.596 127.938 151.309C128.055 147.023 126.465 142.865 123.517 139.75C117.067 132.92 109.327 127.437 100.743 123.619C92.1595 119.801 82.9039 117.724 73.5121 117.507C64.1202 117.206 54.7618 118.77 45.9791 122.111C37.1963 125.452 29.1637 130.502 22.3466 136.97C8.57554 150.029 0.548316 168.019 0.0270599 186.99C-0.494196 205.962 6.53308 224.365 19.5663 238.161C26.0163 244.991 33.7572 250.474 42.3407 254.292C50.9242 258.11 60.1798 260.187 69.5717 260.403H71.5719C89.8433 260.47 107.437 253.492 120.697 240.921C121.017 240.781 121.237 240.541 121.457 240.301Z" fill="#0061BD"/>
<path d="M218.266 256.68C215.155 259.631 213.341 263.697 213.225 267.983C213.109 272.27 214.699 276.428 217.646 279.543C221.173 283.282 223.926 287.68 225.748 292.486C227.571 297.291 228.427 302.409 228.267 307.546C228.154 312.692 227.023 317.765 224.939 322.472C222.855 327.179 219.86 331.426 216.126 334.969C208.566 342.116 198.478 345.97 188.079 345.685C177.679 345.399 167.818 340.999 160.66 333.449C157.126 329.716 154.367 325.319 152.544 320.512C150.72 315.705 149.869 310.584 150.039 305.446C150.148 300.299 151.277 295.225 153.361 290.517C155.445 285.81 158.443 281.563 162.18 278.023C165.292 275.072 167.105 271.007 167.221 266.72C167.337 262.433 165.747 258.275 162.8 255.16C159.849 252.049 155.784 250.236 151.497 250.119C147.211 250.003 143.053 251.593 139.938 254.54C133.109 260.992 127.628 268.733 123.81 277.316C119.992 285.899 117.914 295.154 117.695 304.546C117.396 313.937 118.962 323.295 122.302 332.078C125.643 340.86 130.692 348.893 137.158 355.712C143.61 362.538 151.352 368.019 159.934 371.836C168.517 375.654 177.772 377.733 187.163 377.954H189.163C207.435 378.02 225.029 371.043 238.288 358.472C245.119 352.022 250.601 344.281 254.419 335.697C258.237 327.114 260.315 317.858 260.531 308.466C260.832 299.071 259.267 289.71 255.926 280.924C252.586 272.138 247.536 264.102 241.069 257.281C238.117 254.19 234.063 252.392 229.791 252.28C225.519 252.167 221.376 253.749 218.266 256.68Z" fill="#0061BD"/>
<path d="M358.562 139.73C352.112 132.9 344.371 127.417 335.788 123.599C327.204 119.781 317.949 117.704 308.557 117.488C299.165 117.187 289.807 118.752 281.024 122.093C272.242 125.434 264.209 130.483 257.391 136.95C257.151 137.17 256.931 137.43 256.711 137.65L256.211 138.09L187.024 204.617C185.493 206.089 184.267 207.848 183.416 209.794C182.565 211.74 182.106 213.834 182.065 215.957C182.025 218.081 182.403 220.191 183.178 222.168C183.953 224.145 185.11 225.95 186.584 227.48C188.087 229.057 189.897 230.311 191.902 231.164C193.907 232.017 196.066 232.451 198.245 232.44C202.423 232.442 206.439 230.821 209.446 227.92L278.634 161.412L279.193 160.812L279.634 160.452C283.369 156.921 287.766 154.164 292.573 152.341C297.379 150.518 302.499 149.665 307.637 149.831C312.782 149.941 317.854 151.068 322.561 153.149C327.267 155.229 331.516 158.221 335.06 161.952C338.585 165.692 341.338 170.09 343.16 174.896C344.983 179.701 345.84 184.819 345.681 189.956C345.568 195.102 344.436 200.175 342.353 204.881C340.269 209.588 337.273 213.836 333.539 217.379C325.989 224.537 315.908 228.409 305.507 228.147C295.106 227.884 285.233 223.508 278.053 215.979C276.593 214.433 274.843 213.191 272.903 212.323C270.962 211.454 268.87 210.977 266.745 210.917C264.62 210.858 262.504 211.218 260.518 211.976C258.532 212.735 256.715 213.877 255.171 215.338C252.059 218.289 250.246 222.355 250.13 226.641C250.014 230.928 251.604 235.086 254.551 238.201C261.001 245.031 268.742 250.514 277.325 254.332C285.909 258.15 295.164 260.227 304.556 260.443H306.557C324.829 260.518 342.427 253.539 355.682 240.961C362.512 234.511 367.995 226.77 371.813 218.187C375.631 209.603 377.708 200.348 377.924 190.956C378.246 181.561 376.701 172.196 373.377 163.402C370.053 154.609 365.018 146.563 358.562 139.73Z" fill="#0061BD"/>
<path d="M414.068 188.754C414.068 138.748 425.049 125.967 461.253 125.967C496.937 125.967 502.598 140.728 503.978 173.972H481.156C480.296 152.87 476.855 147.209 461.154 147.209C441.411 147.209 438.511 153.03 438.511 188.374C438.511 228.698 441.411 233.339 461.154 233.339C476.755 233.339 480.196 227.158 481.156 205.716H504.078C502.698 238.659 493.437 252.201 461.354 252.201C423.329 252.241 414.068 236.799 414.068 188.754Z" fill="black"/>
<path d="M519.24 127.967H563.245C588.808 127.967 600.469 137.068 600.469 167.251C600.469 189.894 593.608 200.375 579.887 203.635L604.089 250.18H578.086L557.164 207.796H542.583V250.18H519.08L519.24 127.967ZM542.743 149.249V187.973H560.244C572.066 187.973 576.366 186.273 576.366 168.251C576.366 151.789 572.246 149.389 559.544 149.389L542.743 149.249Z" fill="black"/>
<path d="M613.07 188.754C613.07 138.748 624.051 125.967 660.255 125.967C696.459 125.967 707.44 138.828 707.44 188.754C707.44 236.759 698.159 252.241 660.255 252.241C622.351 252.241 613.07 236.799 613.07 188.754ZM682.898 188.414C682.898 153.07 679.977 147.249 660.255 147.249C640.533 147.249 637.613 153.07 637.613 188.414C637.613 228.738 640.513 233.379 660.255 233.379C679.997 233.379 682.898 228.738 682.898 188.414Z" fill="black"/>
<path d="M743.725 212.616C744.585 228.398 748.186 233.379 762.607 233.379C775.809 233.379 780.449 229.258 780.449 217.757C780.449 207.976 775.808 204.716 762.947 201.455L753.506 199.055C732.584 193.734 721.603 185.333 721.603 161.831C721.603 139.188 732.224 125.967 761.907 125.967C793.65 125.967 802.051 138.488 802.911 166.451H780.109C779.249 150.45 775.469 147.249 762.267 147.249C750.586 147.249 745.265 151.01 745.265 161.491C745.265 172.472 750.086 175.032 763.267 178.473L772.708 180.873C793.811 186.194 804.272 195.975 804.272 217.077C804.272 239.719 793.111 252.241 762.267 252.241C732.064 252.241 721.943 241.44 720.562 212.616H743.725Z" fill="black"/>
<path d="M839.554 212.616C840.414 228.398 844.014 233.379 858.436 233.379C871.637 233.379 876.278 229.258 876.278 217.757C876.278 207.976 871.637 204.716 858.776 201.455L849.335 199.055C828.413 193.734 817.332 185.333 817.332 161.831C817.332 139.188 827.953 125.967 857.636 125.967C889.379 125.967 897.78 138.488 898.64 166.451H875.838C874.978 150.45 871.197 147.249 857.976 147.249C846.314 147.249 840.994 151.01 840.994 161.491C840.994 172.472 845.814 175.032 858.996 178.473L868.437 180.873C889.539 186.194 900 195.975 900 217.077C900 239.719 888.839 252.241 857.996 252.241C827.812 252.241 817.692 241.44 816.312 212.616H839.554Z" fill="black"/>
</svg>
